#!OML:ASF E:\Steps\Project 1\Capture day 1\Session 2\Subject.ASF
:FULLY-SPECIFIED
:DEGREES
337
root -1.05303 17.9615 20.8716 -153.778 -4.04262 177.883
lowerback -28.2787 -0.665432 -7.75794
upperback -0.54182 1.21423 -0.350119
thorax 14.2374 -0.168807 4.26303
lowerneck -3.58213 -1.01194 -1.30351
upperneck 25.3488 -4.14909 2.56438
head 8.53039 -2.64662 0.621965
rclavicle 2.37051e-014 4.77083e-015
rhumerus -37.4343 -28.2593 -73.0591
rradius 18.3297
rwrist 12.9687
rhand -10.9604 -59.0544
rfingers 7.12502
rthumb 15.0587 631.513
lclavicle 2.37051e-014 4.77083e-015
lhumerus -28.4569 1.0424 85.5257
lradius 18.2145
lwrist -5.58395
lhand -21.0049 -10.9627
lfingers 7.12502
lthumb 5.36959 18.9492
rfemur -23.7044 3.62483 19.9482
rtibia 5.96654
rfoot -17.4315 -0.954533
rtoes -15.635
lfemur -24.4998 -6.89288 -23.1516
ltibia 6.846
lfoot -5.9135 -3.9533
ltoes -34.0012
338
root -1.05672 17.9628 20.8806 -153.732 -3.8034 177.929
lowerback -28.2267 -0.656442 -7.7143
upperback -0.542835 1.20888 -0.361904
thorax 14.2141 -0.166777 4.22435
lowerneck -3.4645 -1.14827 -1.33044
upperneck 25.4739 -4.39586 2.5548
head 8.55843 -2.78253 0.601356
rclavicle -1.14301e-014 2.54444e-014
rhumerus -37.385 -28.2935 -73.0847
rradius 18.3012
rwrist 13.0627
rhand -10.1034 -59.6431
rfingers 7.12502
rthumb 15.884 630.988
lclavicle -1.14301e-014 2.54444e-014
lhumerus -28.5896 1.04652 85.4607
lradius 18.2866
lwrist -5.55703
lhand -20.8424 -11.0916
lfingers 7.12502
lthumb 5.52647 18.8163
rfemur -23.8881 3.75654 19.9185
rtibia 6.06066
rfoot -17.4329 -0.823071
rtoes -15.406
lfemur -24.5595 -6.85609 -23.1304
ltibia 6.77468
lfoot -5.92469 -3.74774
ltoes -33.952
339
root -1.0598 17.9627 20.888 -153.706 -3.66046 178.004
lowerback -28.1096 -0.655842 -7.64166
upperback -0.581963 1.17045 -0.354725
thorax 14.1206 -0.175005 4.17719
lowerneck -3.20152 -1.19849 -1.26078
upperneck 25.473 -4.50223 2.49163
head 8.50978 -2.8482 0.562535
rclavicle 1.14798e-014 -2.98177e-015
rhumerus -37.4314 -28.3839 -72.9956
rradius 18.2203
rwrist 13.4731
rhand -8.7152 -60.7114
rfingers 7.12502
rthumb 17.2206 630.032
lclavicle 1.14798e-014 -2.98177e-015
lhumerus -28.7924 0.84798 85.4599
lradius 18.3883
lwrist -5.40801
lhand -20.6549 -11.106
lfingers 7.12502
lthumb 5.70752 18.7971
rfemur -23.9672 3.87537 19.9498
rtibia 6.05103
rfoot -17.3873 -0.808095
rtoes -15.7245
lfemur -24.6055 -6.83426 -23.0672
ltibia 6.73063
lfoot -5.96729 -3.5884
ltoes -33.6029
340
root -1.06124 17.9627 20.8932 -153.713 -3.5413 178.015
lowerback -27.9833 -0.694728 -7.6685
upperback -0.592948 1.11531 -0.336573
thorax 14.0541 -0.198064 4.19044
lowerneck -3.0369 -1.17407 -1.15888
upperneck 25.5418 -4.49651 2.38428
head 8.49885 -2.86021 0.510403
rclavicle 9.54166e-015 -2.06736e-014
rhumerus -37.5117 -27.9365 -73.1983
rradius 18.4218
rwrist 13.0458
rhand -8.58959 -60.662
rfingers 7.12502
rthumb 17.3415 630.092
lclavicle 9.54166e-015 -2.06736e-014
lhumerus -28.9098 0.66907 85.483
lradius 18.4717
lwrist -5.26463
lhand -20.602 -11.1434
lfingers 7.12502
lthumb 5.75858 18.7584
rfemur -23.9023 4.05208 19.89
rtibia 5.86682
rfoot -17.2676 -0.907102
rtoes -16.3655
lfemur -24.603 -6.83615 -23.0718
ltibia 6.71551
lfoot -5.97431 -3.45266
ltoes -33.7647
341
root -1.06309 17.9649 20.8984 -153.768 -3.40024 178.008
lowerback -27.8419 -0.730582 -7.70746
upperback -0.556142 1.07833 -0.338743
thorax 14.0338 -0.213813 4.19635
lowerneck -2.91819 -1.19297 -1.07048
upperneck 25.6113 -4.5614 2.33082
head 8.49975 -2.89993 0.472095
rclavicle -6.11263e-015 -2.60408e-014
rhumerus -37.4805 -27.3482 -73.6069
rradius 18.6071
rwrist 11.8336
rhand -10.6903 -58.9691
rfingers 7.12502
rthumb 15.3188 631.618
lclavicle -6.11263e-015 -2.60408e-014
lhumerus -28.8739 0.805898 85.3589
lradius 18.5179
lwrist -5.2225
lhand -20.1932 -11.0183
lfingers 7.12502
lthumb 6.15327 18.8723
rfemur -23.775 4.05421 19.8434
rtibia 5.638
rfoot -17.1501 -0.810901
rtoes -16.3154
lfemur -24.5156 -6.85251 -23.0939
ltibia 6.63026
lfoot -5.97543 -3.27519
ltoes -34.089
342
root -1.06687 17.9672 20.9037 -153.8 -3.29014 178.042
lowerback -27.7496 -0.75192 -7.64784
upperback -0.515399 1.03513 -0.358415
thorax 14.0451 -0.227122 4.12768
lowerneck -2.78737 -1.32208 -1.02438
upperneck 25.6866 -4.81006 2.36503
head 8.50754 -3.02466 0.455217
rclavicle 1.41634e-014 8.15017e-015
rhumerus -37.4127 -26.8291 -74.0249
rradius 18.7613
rwrist 10.7944
rhand -11.832 -58.3387
rfingers 7.12502
rthumb 14.2189 632.168
lclavicle 1.41634e-014 8.15017e-015
lhumerus -28.7833 1.18396 85.1207
lradius 18.4536
lwrist -5.42533
lhand -19.8138 -10.9951
lfingers 7.12502
lthumb 6.51958 18.8845
rfemur -23.7373 3.87262 19.9002
rtibia 5.54504
rfoot -17.0925 -0.506458
rtoes -15.7726
lfemur -24.4531 -6.86898 -23.0739
ltibia 6.55146
lfoot -5.9831 -3.14305
ltoes -34.1527
343
root -1.07251 17.9662 20.9077 -153.759 -3.23006 178.066
lowerback -27.7283 -0.767907 -7.55538
upperback -0.509107 0.986531 -0.377027
thorax 14.0512 -0.242251 4.03934
lowerneck -2.79971 -1.49803 -1.15099
upperneck 25.9165 -5.1568 2.50697
head 8.60407 -3.20316 0.490339
rclavicle -1.08835e-014 -3.27995e-014
rhumerus -37.5277 -26.8063 -73.9683
rradius 18.8362
rwrist 11.1098
rhand -10.6067 -59.4746
rfingers 7.12502
rthumb 15.3993 631.119
lclavicle -1.08835e-014 -3.27995e-014
lhumerus -28.7486 1.46434 84.9504
lradius 18.3362
lwrist -5.67301
lhand -19.857 -11.1992
lfingers 7.12502
lthumb 6.47786 18.6817
rfemur -23.7925 3.50509 19.9914
rtibia 5.50406
rfoot -17.032 -0.0569577
rtoes -15.5759
lfemur -24.4974 -6.89409 -23.0752
ltibia 6.5432
lfoot -5.96412 -3.11331
ltoes -33.4804
